<?xml version="1.0" encoding="UTF-8" standalone="no"?>
<!-- Created with Inkscape (http://www.inkscape.org/) -->

<svg
   xmlns:dc="http://purl.org/dc/elements/1.1/"
   xmlns:cc="http://creativecommons.org/ns#"
   xmlns:rdf="http://www.w3.org/1999/02/22-rdf-syntax-ns#"
   xmlns:svg="http://www.w3.org/2000/svg"
   xmlns="http://www.w3.org/2000/svg"
   xmlns:sodipodi="http://sodipodi.sourceforge.net/DTD/sodipodi-0.dtd"
   xmlns:inkscape="http://www.inkscape.org/namespaces/inkscape"
   width="210mm"
   height="297mm"
   viewBox="0 0 210 297"
   version="1.1"
   id="svg1338"
   inkscape:version="0.92.5 (2060ec1f9f, 2020-04-08)"
   sodipodi:docname="module_image.svg">
  <defs
     id="defs1332" />
  <sodipodi:namedview
     id="base"
     pagecolor="#ffffff"
     bordercolor="#666666"
     borderopacity="1.0"
     inkscape:pageopacity="0.0"
     inkscape:pageshadow="2"
     inkscape:zoom="0.35"
     inkscape:cx="172.81642"
     inkscape:cy="608.47934"
     inkscape:document-units="mm"
     inkscape:current-layer="layer2"
     showgrid="false"
     inkscape:window-width="1318"
     inkscape:window-height="741"
     inkscape:window-x="48"
     inkscape:window-y="27"
     inkscape:window-maximized="1" />
  <metadata
     id="metadata1335">
    <rdf:RDF>
      <cc:Work
         rdf:about="">
        <dc:format>image/svg+xml</dc:format>
        <dc:type
           rdf:resource="http://purl.org/dc/dcmitype/StillImage" />
        <dc:title></dc:title>
      </cc:Work>
    </rdf:RDF>
  </metadata>
  <g
     inkscape:groupmode="layer"
     id="layer2"
     inkscape:label="Calque 2">
    <path
       sodipodi:type="star"
       style="fill:#552200;fill-opacity:1;stroke-width:2.51347303"
       id="path1973"
       sodipodi:sides="4"
       sodipodi:cx="104.74665"
       sodipodi:cy="137.91927"
       sodipodi:r1="124.41056"
       sodipodi:r2="87.971573"
       sodipodi:arg1="0.78539816"
       sodipodi:arg2="1.5707963"
       inkscape:flatsided="true"
       inkscape:rounded="0.15"
       inkscape:randomized="0"
       d="m 192.7182,225.89082 c -18.66158,18.66158 -157.281516,18.66158 -175.9431,0 C -1.8864842,207.22923 -1.8864847,68.609299 16.775099,49.947715 35.436683,31.286131 174.05662,31.28613 192.7182,49.947714 c 18.66159,18.661584 18.66159,157.281516 0,175.943106 z"
       inkscape:transform-center-y="6.7357645e-06"
       inkscape:transform-center-x="1.8662892e-05"
       inkscape:export-xdpi="15.942299"
       inkscape:export-ydpi="15.942299" />
  </g>
  <g
     inkscape:label="Calque 1"
     inkscape:groupmode="layer"
     id="layer1">
    <path
       d="m 188.57135,102.26846 c 0,16.03835 -13.00085,29.03919 -29.03918,29.03919 -16.03834,0 -29.03918,-13.00084 -29.03918,-29.03919 0,-16.038325 13.00084,-29.039165 29.03918,-29.039165 16.03833,0 29.03918,13.00084 29.03918,29.039165"
       style="fill:#5b5c5e;fill-opacity:1;fill-rule:nonzero;stroke:none;stroke-width:0.29039183"
       id="path328"
       inkscape:connector-curvature="0"
       inkscape:export-xdpi="15.942299"
       inkscape:export-ydpi="15.942299" />
    <path
       d="m 174.05176,105.17238 h -29.03918 c -1.60296,0 -2.90392,-1.30095 -2.90392,-2.90392 0,-1.60296 1.30096,-2.903905 2.90392,-2.903905 h 29.03918 c 1.60296,0 2.90391,1.300945 2.90391,2.903905 0,1.60297 -1.30095,2.90392 -2.90391,2.90392"
       style="fill:#fcfbc8;fill-opacity:1;fill-rule:nonzero;stroke:none;stroke-width:0.29039183"
       id="path330"
       inkscape:connector-curvature="0"
       inkscape:export-xdpi="15.942299"
       inkscape:export-ydpi="15.942299" />
    <path
       d="m 159.53217,119.69197 c -1.60297,0 -2.90392,-1.30095 -2.90392,-2.90392 V 87.748875 c 0,-1.60296 1.30095,-2.90391 2.90392,-2.90391 1.60296,0 2.90392,1.30095 2.90392,2.90391 v 29.039175 c 0,1.60297 -1.30096,2.90392 -2.90392,2.90392"
       style="fill:#fcfbc8;fill-opacity:1;fill-rule:nonzero;stroke:none;stroke-width:0.29039183"
       id="path332"
       inkscape:connector-curvature="0"
       inkscape:export-xdpi="15.942299"
       inkscape:export-ydpi="15.942299" />
    <path
       d="m 69.510709,137.11549 c 0,9.62358 -7.8008,17.4235 -17.423513,17.4235 -9.622708,0 -17.423504,-7.79992 -17.423504,-17.4235 0,-9.62359 7.800796,-17.42352 17.423504,-17.42352 9.622713,0 17.423513,7.79993 17.423513,17.42352"
       style="fill:#f9e806;fill-opacity:1;fill-rule:nonzero;stroke:none;stroke-width:0.29039183"
       id="path334"
       inkscape:connector-curvature="0"
       inkscape:export-xdpi="15.942299"
       inkscape:export-ydpi="15.942299" />
    <path
       d="m 52.087196,119.69197 c -0.991395,0 -1.957816,0.10166 -2.903912,0.26136 8.236378,1.38517 14.519595,8.53171 14.519595,17.16216 0,8.63044 -6.283217,15.77698 -14.519595,17.16215 0.946096,0.15969 1.912517,0.26135 2.903912,0.26135 9.622713,0 17.423513,-7.79992 17.423513,-17.4235 0,-9.62359 -7.8008,-17.42352 -17.423513,-17.42352"
       style="fill:#cac015;fill-opacity:1;fill-rule:nonzero;stroke:none;stroke-width:0.29039183"
       id="path336"
       inkscape:connector-curvature="0"
       inkscape:export-xdpi="15.942299"
       inkscape:export-ydpi="15.942299" />
    <path
       d="m 52.087196,157.44291 c -17.642464,0 -31.943095,14.3018 -31.943095,31.94306 h 63.886198 c 0,-17.64126 -14.30064,-31.94306 -31.943103,-31.94306"
       style="fill:#f9e806;fill-opacity:1;fill-rule:nonzero;stroke:none;stroke-width:0.29039183"
       id="path338"
       inkscape:connector-curvature="0"
       inkscape:export-xdpi="15.942299"
       inkscape:export-ydpi="15.942299" />
    <path
       d="m 52.087196,157.44291 c -0.980069,0 -1.945328,0.0584 -2.903912,0.14521 16.279075,1.47228 29.039175,15.13522 29.039175,31.79793 h 5.80784 c 0,-17.64133 -14.30064,-31.94313 -31.943103,-31.94313"
       style="fill:#cac015;fill-opacity:1;fill-rule:nonzero;stroke:none;stroke-width:0.29039183"
       id="path340"
       inkscape:connector-curvature="0"
       inkscape:export-xdpi="15.942299"
       inkscape:export-ydpi="15.942299" />
    <path
       d="m 121.78124,125.49981 c 0,12.82951 -10.40184,23.23135 -23.231351,23.23135 -12.83068,0 -23.23134,-10.40184 -23.23134,-23.23135 0,-12.82951 10.40066,-23.23135 23.23134,-23.23135 12.829511,0 23.231351,10.40184 23.231351,23.23135"
       style="fill:#f8a00e;fill-opacity:1;fill-rule:nonzero;stroke:none;stroke-width:0.29039183"
       id="path342"
       inkscape:connector-curvature="0"
       inkscape:export-xdpi="15.942299"
       inkscape:export-ydpi="15.942299" />
    <path
       d="m 98.549889,102.26846 c -0.98588,0 -1.95115,0.0815 -2.90392,0.20036 11.455961,1.43164 20.327431,11.18589 20.327431,23.03098 0,11.84508 -8.87147,21.59934 -20.327431,23.03097 0.95277,0.11911 1.91804,0.20036 2.90392,0.20036 12.829511,0 23.231351,-10.40184 23.231351,-23.23135 0,-12.82951 -10.40184,-23.23134 -23.231351,-23.23134"
       style="fill:#cf8619;fill-opacity:1;fill-rule:nonzero;stroke:none;stroke-width:0.29039183"
       id="path344"
       inkscape:connector-curvature="0"
       inkscape:export-xdpi="15.942299"
       inkscape:export-ydpi="15.942299" />
    <path
       d="m 98.549889,151.63507 c -20.84926,0 -37.750933,16.90081 -37.750933,37.7509 h 75.501874 c 0,-20.85009 -16.90081,-37.7509 -37.750941,-37.7509"
       style="fill:#f8a00e;fill-opacity:1;fill-rule:nonzero;stroke:none;stroke-width:0.29039183"
       id="path346"
       inkscape:connector-curvature="0"
       inkscape:export-xdpi="15.942299"
       inkscape:export-ydpi="15.942299" />
    <path
       d="m 98.549889,151.63507 c -0.98007,0 -1.94185,0.0724 -2.90392,0.14809 19.488201,1.4839 34.847021,17.73423 34.847021,37.6028 h 5.80784 c 0,-20.8501 -16.90081,-37.7509 -37.750941,-37.7509"
       style="fill:#cf8619;fill-opacity:1;fill-rule:nonzero;stroke:none;stroke-width:0.29039183"
       id="path348"
       inkscape:connector-curvature="0"
       inkscape:export-xdpi="15.942299"
       inkscape:export-ydpi="15.942299" />
  </g>
</svg>
